<svg width="27" height="27" viewBox="0 0 27 27" fill="none" xmlns="http://www.w3.org/2000/svg">
<path fill-rule="evenodd" clip-rule="evenodd" d="M26.5966 3.20458C27.2618 2.32283 27.0863 1.06872 26.2046 0.403448C25.3228 -0.261827 24.0687 -0.0863378 23.4035 0.795413C17.7358 8.30733 15.0104 13.2923 12.2218 21.1013C11.0319 19.8777 9.89157 18.9062 8.71605 18.0958C6.8012 16.7758 4.88074 15.9454 2.70307 15.1276C1.669 14.7394 0.515946 15.2629 0.127651 16.2969C-0.260644 17.331 0.262861 18.4841 1.29693 18.8723C3.36987 19.6507 4.93199 20.3456 6.44577 21.3891C7.95367 22.4286 9.50088 23.8758 11.4314 26.2411C11.5536 26.3958 11.6993 26.5334 11.8655 26.6478C12.0692 26.7881 12.2946 26.8873 12.5291 26.9439C12.8096 27.0122 13.0929 27.0172 13.3626 26.9672C13.6323 26.9178 13.895 26.8122 14.1326 26.6486C14.3318 26.5119 14.5073 26.3386 14.6478 26.1344C14.7623 25.9682 14.8494 25.7875 14.9084 25.5992C18.0125 16.2074 20.4609 11.3367 26.5966 3.20458Z" fill="white"/>
</svg>
